<?xml version="1.0" standalone="no"?>
<!DOCTYPE svg PUBLIC "-//W3C//DTD SVG 20010904//EN"
 "http://www.w3.org/TR/2001/REC-SVG-20010904/DTD/svg10.dtd">
<svg version="1.0" xmlns="http://www.w3.org/2000/svg"
 width="330.000000pt" height="320.000000pt" viewBox="0 0 330.000000 320.000000"
 preserveAspectRatio="xMidYMid meet">

<g transform="translate(0.000000,320.000000) scale(0.100000,-0.100000)"
fill="#000000" stroke="none">
<path d="M156 3100 c-5 -12 0 -2980 5 -2985 5 -4 1894 -8 2842 -5 l147 0 0
1348 0 1347 -148 148 -148 148 -1348 2 c-741 1 -1349 0 -1350 -3z m2496 -232
c3 -24 4 -169 2 -323 -2 -154 -3 -317 -4 -362 l0 -83 -800 0 -800 0 0 405 0
405 799 0 798 0 5 -42z m101 -1858 c-1 -382 -2 -698 -2 -702 -1 -5 -496 -8
-1101 -8 l-1100 0 0 705 0 704 1102 -2 1103 -2 -2 -695z m-2301 -597 c3 -54 3
-101 1 -105 -2 -5 -49 -8 -104 -8 l-99 0 0 98 c0 54 3 102 7 105 3 4 48 7 98
7 l93 0 4 -97z m2606 62 c2 -16 1 -63 -3 -102 l-7 -73 -99 0 -99 0 0 98 c0 54
3 102 7 106 4 4 50 5 103 4 l95 -3 3 -30z"/>
<path d="M2238 2703 l-176 -3 -6 -73 c-3 -39 -4 -127 -3 -194 l2 -123 197 0
198 0 0 200 c0 185 -1 200 -17 198 -10 -1 -98 -4 -195 -5z"/>
<path d="M763 1303 c-8 -3 -13 -23 -13 -49 l0 -44 900 0 900 0 0 45 0 45 -874
0 c-481 0 -880 2 -888 4 -7 3 -19 2 -25 -1z"/>
<path d="M750 955 l0 -45 553 0 c303 -1 671 -1 817 -1 146 -1 302 0 348 0 l82
1 0 45 0 45 -900 0 -900 0 0 -45z"/>
<path d="M752 653 l3 -47 897 -1 898 0 0 48 0 47 -901 0 -900 0 3 -47z"/>
</g>
</svg>
